<svg xmlns="http://www.w3.org/2000/svg" xmlns:xlink="http://www.w3.org/1999/xlink" xmlns:fi="http://pattern.flaticon.com/" x="0" y="0" width="700" height="350" viewBox="0 0 700 350"><rect x="0px" y="0px" width="100%" height="100%" opacity="0" fill="#ffffff"/><defs><g transform="matrix(0.09496202146658489 0.017493003703064697 -0.017493003703064697 0.09496202146658489 215.84477146984858 71.1779132504656)" id="L1_0"><path d="m495.513 424.878a81.368 81.368 0 0 0 .487-8.878 80.091 80.091 0 0 0 -80-80h-8a24 24 0 0 1 0-48h32a28 28 0 0 0 0-56h-32a80.133 80.133 0 0 0 -76.585 56.9 225.667 225.667 0 0 0 -19.729-34.366 223.259 223.259 0 0 0 -106.452-82.184 8.03 8.03 0 0 1 -5.234-7.507v-140.843a8 8 0 0 0 -9.94-7.761l-7.46 1.861a53.8 53.8 0 0 0 -36.036 29.9h-61.128a53.8 53.8 0 0 0 -36.036-29.9l-7.46-1.861a8 8 0 0 0 -9.94 7.761v64h16v-53.665a37.883 37.883 0 0 1 24.41 24.2 8 8 0 0 0 7.59 5.465h72a8 8 0 0 0 7.59-5.47 37.886 37.886 0 0 1 24.41-24.196v130.509a24.091 24.091 0 0 0 15.7 22.521 208.309 208.309 0 0 1 136.3 195.467v97.169h-182.987a32.057 32.057 0 0 1 30.987-24h24a8 8 0 0 0 8-8v-40a72.081 72.081 0 0 1 72-72v-16a88.1 88.1 0 0 0 -88 88v32h-16a47.8 47.8 0 0 0 -32 12.261v-148.261h-16v176h-56v-6.111a20.832 20.832 0 0 1 11.578-18.734 8 8 0 0 0 4.422-7.155v-144h-16v139.446a36.709 36.709 0 0 0 -16 30.443v6.111h-32v-6.111a20.832 20.832 0 0 1 11.578-18.734 8 8 0 0 0 4.422-7.155v-344h-16v339.446a36.709 36.709 0 0 0 -16 30.443v14.111a8 8 0 0 0 8 8h392a80.139 80.139 0 0 0 75.446-53.334l-15.086-5.332a64.113 64.113 0 0 1 -60.36 42.666h-64v-24h64a40 40 0 0 0 0-80h-8a64 64 0 0 1 0-128h32a12 12 0 0 1 0 24h-32a40 40 0 0 0 0 80h8a64.072 64.072 0 0 1 64 64 65.03 65.03 0 0 1 -.392 7.122zm-87.513-32.878h8a24 24 0 0 1 0 48h-64v-57.169q0-7.132-.452-14.2a79.749 79.749 0 0 0 56.452 23.369z" fill="#cfcfcf"/><circle cx="80" cy="96" r="16" fill="#cfcfcf"/><circle cx="152" cy="96" r="16" fill="#cfcfcf"/><path d="m88 160h8a23.9 23.9 0 0 0 16-6.126 23.9 23.9 0 0 0 16 6.126h8a24.027 24.027 0 0 0 24-24h-16a8.009 8.009 0 0 1 -8 8h-8a8.009 8.009 0 0 1 -8-8c0-.232-.015-.46-.035-.687a11.992 11.992 0 0 0 -3.965-23.313h-8a11.992 11.992 0 0 0 -3.965 23.313c-.02.227-.035.455-.035.687a8.009 8.009 0 0 1 -8 8h-8a8.009 8.009 0 0 1 -8-8h-16a24.027 24.027 0 0 0 24 24z" fill="#cfcfcf"/></g><g transform="matrix(-0.024977943364550337 -0.08855815536434979 0.08855815536434979 -0.024977943364550337 218.67010590089325 165.9926586600161)" id="L1_5"><circle cx="10" cy="500" r="10" fill="#cfcfcf"/><circle cx="267" cy="245" r="10" fill="#cfcfcf"/><path d="M398.479,118.032c-8.071-8.072-18.802-12.516-30.216-12.516c-11.414,0-22.146,4.446-30.216,12.516    c-16.661,16.662-16.661,43.772,0,60.433c8.332,8.331,19.272,12.495,30.216,12.495c10.941,0,21.886-4.166,30.216-12.495    C415.14,161.803,415.14,134.693,398.479,118.032z M384.282,164.266c-8.833,8.832-23.206,8.832-32.037,0    c-8.833-8.832-8.833-23.204,0-32.037c4.279-4.279,9.967-6.635,16.018-6.635c6.051,0,11.739,2.356,16.018,6.635    C393.114,141.062,393.114,155.434,384.282,164.266z" fill="#cfcfcf"/><path d="M125.409,411.45c-4.964-2.472-10.99-0.451-13.462,4.512l-11.958,24.015c-5.2,10.441-15.658,17.423-27.296,18.219    l-13.908,0.952c-2.351,0.157-3.897-1.014-4.612-1.729s-1.889-2.264-1.729-4.613l0.952-13.907    c0.797-11.637,7.779-22.096,18.219-27.296l24.014-11.958c4.964-2.472,6.984-8.499,4.512-13.462    c-2.471-4.963-8.498-6.984-13.462-4.512l-24.014,11.958c-16.792,8.362-28.02,25.182-29.302,43.898l-0.952,13.907    c-0.514,7.507,2.242,14.863,7.562,20.183c4.898,4.898,11.523,7.624,18.403,7.624c0.591,0,1.186-0.02,1.78-0.061l13.908-0.952    c18.716-1.281,35.536-12.508,43.898-29.302l11.958-24.014C132.392,419.948,130.372,413.922,125.409,411.45z" fill="#cfcfcf"/><path d="M505.07,8.18c-4.711-4.641-11.201-7.068-17.793-6.639l-9.348,0.596c-83.819,5.351-162.262,45.81-215.215,111.004    L240.71,140.23l-57.583-1.691c-0.098-0.003-0.197-0.004-0.294-0.004c-45.668,0-88.603,17.784-120.896,50.076L2.959,247.59    c-2.805,2.805-3.696,7-2.272,10.702c1.424,3.703,4.894,6.221,8.856,6.423l124.844,6.414l-5.09,6.267    c-2.565,3.159-2.971,7.553-1.026,11.127c1.956,3.596,4.006,7.135,6.144,10.617l-29.606,35.147    c-2.531,3.005-3.076,7.211-1.397,10.763c6.467,13.665,15.05,25.943,25.514,36.493c10.718,10.808,23.251,19.646,37.249,26.271    c1.368,0.648,2.835,0.965,4.293,0.965c2.261,0,4.503-0.764,6.327-2.243c6.378-5.174,13.731-11.311,20.843-17.245    c5.069-4.23,10.255-8.557,15.102-12.547c2.893,1.741,5.822,3.429,8.795,5.046c1.504,0.818,3.153,1.221,4.796,1.221    c2.186,0,4.358-0.712,6.156-2.108l6.843-5.31l6.442,125.37c0.204,3.962,2.721,7.432,6.423,8.856c1.172,0.45,2.39,0.67,3.6,0.67    c2.615,0,5.183-1.023,7.101-2.942l58.979-58.979c32.293-32.293,50.076-75.227,50.076-120.896v-54.995l23.267-18.055    c69.729-54.11,112.196-135.704,116.512-223.862l0.239-4.886C512.295,19.27,509.779,12.822,505.07,8.18z M33.123,245.822    l43.012-43.012c28.465-28.465,66.303-44.157,106.553-44.196l42.085,1.236l-74.71,91.98L33.123,245.822z M184.774,373.874    c-5.241,4.372-10.614,8.856-15.6,12.957c-9.644-5.223-18.368-11.74-25.992-19.428c-7.384-7.445-13.669-15.922-18.737-25.26    l21.676-25.733c6.554,8.793,13.728,17.122,21.478,24.925c0.006,0.006,0.012,0.011,0.018,0.017    c0.002,0.002,0.004,0.005,0.006,0.007c0.003,0.003,0.006,0.005,0.009,0.008c8.593,8.648,17.836,16.584,27.641,23.761    C191.811,368.002,188.264,370.962,184.774,373.874z M351.875,327.672c0,40.305-15.695,78.197-44.196,106.698l-43.012,43.012    l-6.002-116.792l93.209-72.33V327.672z M491.678,29.779c-4.029,82.297-43.673,158.467-108.767,208.98l-157.46,122.189    c-13.058-7.63-25.229-16.639-36.368-26.846l53.086-53.086c3.92-3.92,3.92-10.278,0-14.199c-3.921-3.921-10.278-3.921-14.199,0    l-53.036,53.036c-9.751-10.795-18.387-22.541-25.74-35.104L278.3,125.8C327.732,64.941,400.96,27.171,479.207,22.177l9.348-0.596    c1.225-0.076,2.045,0.532,2.423,0.904c0.377,0.371,1,1.178,0.94,2.409L491.678,29.779z" fill="#cfcfcf"/></g><g transform="matrix(-0.08572983577887992 0.029393086643328827 0.029393086643328827 0.08572983577887992 42.98460330273765 243.5191723890403)"><path d="m495.513 424.878a81.368 81.368 0 0 0 .487-8.878 80.091 80.091 0 0 0 -80-80h-8a24 24 0 0 1 0-48h32a28 28 0 0 0 0-56h-32a80.133 80.133 0 0 0 -76.585 56.9 225.667 225.667 0 0 0 -19.729-34.366 223.259 223.259 0 0 0 -106.452-82.184 8.03 8.03 0 0 1 -5.234-7.507v-140.843a8 8 0 0 0 -9.94-7.761l-7.46 1.861a53.8 53.8 0 0 0 -36.036 29.9h-61.128a53.8 53.8 0 0 0 -36.036-29.9l-7.46-1.861a8 8 0 0 0 -9.94 7.761v64h16v-53.665a37.883 37.883 0 0 1 24.41 24.2 8 8 0 0 0 7.59 5.465h72a8 8 0 0 0 7.59-5.47 37.886 37.886 0 0 1 24.41-24.196v130.509a24.091 24.091 0 0 0 15.7 22.521 208.309 208.309 0 0 1 136.3 195.467v97.169h-182.987a32.057 32.057 0 0 1 30.987-24h24a8 8 0 0 0 8-8v-40a72.081 72.081 0 0 1 72-72v-16a88.1 88.1 0 0 0 -88 88v32h-16a47.8 47.8 0 0 0 -32 12.261v-148.261h-16v176h-56v-6.111a20.832 20.832 0 0 1 11.578-18.734 8 8 0 0 0 4.422-7.155v-144h-16v139.446a36.709 36.709 0 0 0 -16 30.443v6.111h-32v-6.111a20.832 20.832 0 0 1 11.578-18.734 8 8 0 0 0 4.422-7.155v-344h-16v339.446a36.709 36.709 0 0 0 -16 30.443v14.111a8 8 0 0 0 8 8h392a80.139 80.139 0 0 0 75.446-53.334l-15.086-5.332a64.113 64.113 0 0 1 -60.36 42.666h-64v-24h64a40 40 0 0 0 0-80h-8a64 64 0 0 1 0-128h32a12 12 0 0 1 0 24h-32a40 40 0 0 0 0 80h8a64.072 64.072 0 0 1 64 64 65.03 65.03 0 0 1 -.392 7.122zm-87.513-32.878h8a24 24 0 0 1 0 48h-64v-57.169q0-7.132-.452-14.2a79.749 79.749 0 0 0 56.452 23.369z" fill="#cfcfcf"/><circle cx="80" cy="96" r="16" fill="#cfcfcf"/><circle cx="152" cy="96" r="16" fill="#cfcfcf"/><path d="m88 160h8a23.9 23.9 0 0 0 16-6.126 23.9 23.9 0 0 0 16 6.126h8a24.027 24.027 0 0 0 24-24h-16a8.009 8.009 0 0 1 -8 8h-8a8.009 8.009 0 0 1 -8-8c0-.232-.015-.46-.035-.687a11.992 11.992 0 0 0 -3.965-23.313h-8a11.992 11.992 0 0 0 -3.965 23.313c-.02.227-.035.455-.035.687a8.009 8.009 0 0 1 -8 8h-8a8.009 8.009 0 0 1 -8-8h-16a24.027 24.027 0 0 0 24 24z" fill="#cfcfcf"/></g><g transform="matrix(0.08311941197781797 0.01572529460686508 -0.01572529460686508 0.08311941197781797 16.72698823122436 278.6968786619945)"><circle cx="10" cy="500" r="10" fill="#cfcfcf"/><circle cx="267" cy="245" r="10" fill="#cfcfcf"/><path d="M398.479,118.032c-8.071-8.072-18.802-12.516-30.216-12.516c-11.414,0-22.146,4.446-30.216,12.516    c-16.661,16.662-16.661,43.772,0,60.433c8.332,8.331,19.272,12.495,30.216,12.495c10.941,0,21.886-4.166,30.216-12.495    C415.14,161.803,415.14,134.693,398.479,118.032z M384.282,164.266c-8.833,8.832-23.206,8.832-32.037,0    c-8.833-8.832-8.833-23.204,0-32.037c4.279-4.279,9.967-6.635,16.018-6.635c6.051,0,11.739,2.356,16.018,6.635    C393.114,141.062,393.114,155.434,384.282,164.266z" fill="#cfcfcf"/><path d="M125.409,411.45c-4.964-2.472-10.99-0.451-13.462,4.512l-11.958,24.015c-5.2,10.441-15.658,17.423-27.296,18.219    l-13.908,0.952c-2.351,0.157-3.897-1.014-4.612-1.729s-1.889-2.264-1.729-4.613l0.952-13.907    c0.797-11.637,7.779-22.096,18.219-27.296l24.014-11.958c4.964-2.472,6.984-8.499,4.512-13.462    c-2.471-4.963-8.498-6.984-13.462-4.512l-24.014,11.958c-16.792,8.362-28.02,25.182-29.302,43.898l-0.952,13.907    c-0.514,7.507,2.242,14.863,7.562,20.183c4.898,4.898,11.523,7.624,18.403,7.624c0.591,0,1.186-0.02,1.78-0.061l13.908-0.952    c18.716-1.281,35.536-12.508,43.898-29.302l11.958-24.014C132.392,419.948,130.372,413.922,125.409,411.45z" fill="#cfcfcf"/><path d="M505.07,8.18c-4.711-4.641-11.201-7.068-17.793-6.639l-9.348,0.596c-83.819,5.351-162.262,45.81-215.215,111.004    L240.71,140.23l-57.583-1.691c-0.098-0.003-0.197-0.004-0.294-0.004c-45.668,0-88.603,17.784-120.896,50.076L2.959,247.59    c-2.805,2.805-3.696,7-2.272,10.702c1.424,3.703,4.894,6.221,8.856,6.423l124.844,6.414l-5.09,6.267    c-2.565,3.159-2.971,7.553-1.026,11.127c1.956,3.596,4.006,7.135,6.144,10.617l-29.606,35.147    c-2.531,3.005-3.076,7.211-1.397,10.763c6.467,13.665,15.05,25.943,25.514,36.493c10.718,10.808,23.251,19.646,37.249,26.271    c1.368,0.648,2.835,0.965,4.293,0.965c2.261,0,4.503-0.764,6.327-2.243c6.378-5.174,13.731-11.311,20.843-17.245    c5.069-4.23,10.255-8.557,15.102-12.547c2.893,1.741,5.822,3.429,8.795,5.046c1.504,0.818,3.153,1.221,4.796,1.221    c2.186,0,4.358-0.712,6.156-2.108l6.843-5.31l6.442,125.37c0.204,3.962,2.721,7.432,6.423,8.856c1.172,0.45,2.39,0.67,3.6,0.67    c2.615,0,5.183-1.023,7.101-2.942l58.979-58.979c32.293-32.293,50.076-75.227,50.076-120.896v-54.995l23.267-18.055    c69.729-54.11,112.196-135.704,116.512-223.862l0.239-4.886C512.295,19.27,509.779,12.822,505.07,8.18z M33.123,245.822    l43.012-43.012c28.465-28.465,66.303-44.157,106.553-44.196l42.085,1.236l-74.71,91.98L33.123,245.822z M184.774,373.874    c-5.241,4.372-10.614,8.856-15.6,12.957c-9.644-5.223-18.368-11.74-25.992-19.428c-7.384-7.445-13.669-15.922-18.737-25.26    l21.676-25.733c6.554,8.793,13.728,17.122,21.478,24.925c0.006,0.006,0.012,0.011,0.018,0.017    c0.002,0.002,0.004,0.005,0.006,0.007c0.003,0.003,0.006,0.005,0.009,0.008c8.593,8.648,17.836,16.584,27.641,23.761    C191.811,368.002,188.264,370.962,184.774,373.874z M351.875,327.672c0,40.305-15.695,78.197-44.196,106.698l-43.012,43.012    l-6.002-116.792l93.209-72.33V327.672z M491.678,29.779c-4.029,82.297-43.673,158.467-108.767,208.98l-157.46,122.189    c-13.058-7.63-25.229-16.639-36.368-26.846l53.086-53.086c3.92-3.92,3.92-10.278,0-14.199c-3.921-3.921-10.278-3.921-14.199,0    l-53.036,53.036c-9.751-10.795-18.387-22.541-25.74-35.104L278.3,125.8C327.732,64.941,400.96,27.171,479.207,22.177l9.348-0.596    c1.225-0.076,2.045,0.532,2.423,0.904c0.377,0.371,1,1.178,0.94,2.409L491.678,29.779z" fill="#cfcfcf"/></g></defs><g fi:class="KUsePattern"><pattern id="pattern_L1_0" width="350" height="350" patternUnits="userSpaceOnUse"><use xlink:href="#L1_0" x="-350" y="-350"/><use xlink:href="#L1_0" x="0" y="-350"/><use xlink:href="#L1_0" x="350" y="-350"/><use xlink:href="#L1_0" x="-350" y="0"/><use xlink:href="#L1_0" x="0" y="0"/><use xlink:href="#L1_0" x="350" y="0"/><use xlink:href="#L1_0" x="-350" y="350"/><use xlink:href="#L1_0" x="0" y="350"/><use xlink:href="#L1_0" x="350" y="350"/></pattern><rect x="0" y="0" width="100%" height="100%" fill="url(#pattern_L1_0)"/></g><g fi:class="KUsePattern"><pattern id="pattern_L1_5" width="350" height="350" patternUnits="userSpaceOnUse"><use xlink:href="#L1_5" x="-350" y="-350"/><use xlink:href="#L1_5" x="0" y="-350"/><use xlink:href="#L1_5" x="350" y="-350"/><use xlink:href="#L1_5" x="-350" y="0"/><use xlink:href="#L1_5" x="0" y="0"/><use xlink:href="#L1_5" x="350" y="0"/><use xlink:href="#L1_5" x="-350" y="350"/><use xlink:href="#L1_5" x="0" y="350"/><use xlink:href="#L1_5" x="350" y="350"/></pattern><rect x="0" y="0" width="100%" height="100%" fill="url(#pattern_L1_5)"/></g><g fi:class="KUsePattern" transform="matrix(1 0 0 1 20 20)"><pattern id="pattern_UNKNOWN" width="350" height="350" patternUnits="userSpaceOnUse"><use xlink:href="#UNKNOWN" x="-350" y="-350"/><use xlink:href="#UNKNOWN" x="0" y="-350"/><use xlink:href="#UNKNOWN" x="350" y="-350"/><use xlink:href="#UNKNOWN" x="-350" y="0"/><use xlink:href="#UNKNOWN" x="0" y="0"/><use xlink:href="#UNKNOWN" x="350" y="0"/><use xlink:href="#UNKNOWN" x="-350" y="350"/><use xlink:href="#UNKNOWN" x="0" y="350"/><use xlink:href="#UNKNOWN" x="350" y="350"/></pattern><rect x="0" y="0" width="100%" height="100%" fill="url(#pattern_UNKNOWN)"/></g><g fi:class="KUsePattern" transform="matrix(1 0 0 1 20 20)"><pattern id="pattern_UNKNOWN" width="350" height="350" patternUnits="userSpaceOnUse"><use xlink:href="#UNKNOWN" x="-350" y="-350"/><use xlink:href="#UNKNOWN" x="0" y="-350"/><use xlink:href="#UNKNOWN" x="350" y="-350"/><use xlink:href="#UNKNOWN" x="-350" y="0"/><use xlink:href="#UNKNOWN" x="0" y="0"/><use xlink:href="#UNKNOWN" x="350" y="0"/><use xlink:href="#UNKNOWN" x="-350" y="350"/><use xlink:href="#UNKNOWN" x="0" y="350"/><use xlink:href="#UNKNOWN" x="350" y="350"/></pattern><rect x="0" y="0" width="100%" height="100%" fill="url(#pattern_UNKNOWN)"/></g></svg>